<?xml version="1.0" encoding="UTF-8"?>
<svg xmlns="http://www.w3.org/2000/svg" xmlns:xlink="http://www.w3.org/1999/xlink" viewBox="0 0 64 64" width="64px" height="64px">
<g id="surface71214946">
<path style=" stroke:none;fill-rule:nonzero;fill:rgb(100%,98.823529%,98.823529%);fill-opacity:1;" d="M 48 13.332031 C 51.925781 13.332031 55.109375 16.515625 55.109375 20.445312 L 55.109375 43.554688 C 55.109375 47.484375 51.925781 50.667969 48 50.667969 L 16 50.667969 C 12.074219 50.667969 8.890625 47.484375 8.890625 43.554688 L 8.890625 20.445312 C 8.890625 16.515625 12.074219 13.332031 16 13.332031 Z M 23.511719 23.109375 C 21.644531 23.109375 20.132812 24.625 20.132812 26.488281 C 20.132812 28.355469 21.644531 29.867188 23.511719 29.867188 C 25.375 29.867188 26.890625 28.355469 26.890625 26.488281 C 26.890625 24.625 25.375 23.109375 23.511719 23.109375 Z M 48 42.667969 L 48 39.902344 L 40.175781 32.867188 C 38.890625 31.707031 36.9375 31.710938 35.652344 32.871094 L 29.359375 38.554688 L 25.757812 35.476562 C 24.492188 34.390625 22.621094 34.394531 21.359375 35.484375 L 16 40.101562 L 16 42.667969 C 16 43.15625 16.398438 43.554688 16.890625 43.554688 L 47.109375 43.554688 C 47.601562 43.554688 48 43.15625 48 42.667969 Z M 48 42.667969 "/>
</g>
</svg>
