<?xml version="1.0" encoding="UTF-8"?>
<svg xmlns="http://www.w3.org/2000/svg" xmlns:xlink="http://www.w3.org/1999/xlink" viewBox="0 0 32 32" width="32px" height="32px">
<g id="surface63605089">
<path style=" stroke:none;fill-rule:nonzero;fill:rgb(27.843139%,16.078432%,37.64706%);fill-opacity:1;" d="M 32.039062 6.679688 C 30.859375 7.203125 29.589844 7.558594 28.257812 7.71875 C 29.617188 6.902344 30.664062 5.613281 31.152344 4.078125 C 29.882812 4.828125 28.46875 5.378906 26.972656 5.671875 C 25.773438 4.390625 24.0625 3.59375 22.171875 3.59375 C 18.535156 3.59375 15.585938 6.539062 15.585938 10.175781 C 15.585938 10.691406 15.648438 11.191406 15.761719 11.675781 C 10.289062 11.398438 5.441406 8.78125 2.195312 4.796875 C 1.628906 5.773438 1.304688 6.902344 1.304688 8.109375 C 1.304688 10.390625 2.464844 12.40625 4.234375 13.585938 C 3.152344 13.550781 2.136719 13.253906 1.25 12.761719 C 1.25 12.789062 1.25 12.816406 1.25 12.84375 C 1.25 16.035156 3.519531 18.691406 6.527344 19.300781 C 5.976562 19.449219 5.394531 19.53125 4.796875 19.53125 C 4.371094 19.53125 3.957031 19.488281 3.554688 19.410156 C 4.394531 22.023438 6.824219 23.929688 9.703125 23.984375 C 7.453125 25.746094 4.613281 26.796875 1.53125 26.796875 C 0.996094 26.796875 0.476562 26.765625 -0.0390625 26.703125 C 2.871094 28.574219 6.332031 29.664062 10.050781 29.664062 C 22.15625 29.664062 28.773438 19.636719 28.773438 10.941406 C 28.773438 10.65625 28.765625 10.367188 28.757812 10.085938 C 30.042969 9.160156 31.15625 8 32.039062 6.679688 Z M 32.039062 6.679688 "/>
</g>
</svg>
